<?xml version="1.0" encoding="utf-8"?>
<!-- Generator: Adobe Illustrator 15.0.0, SVG Export Plug-In . SVG Version: 6.00 Build 0)  -->
<!DOCTYPE svg PUBLIC "-//W3C//DTD SVG 1.1//EN" "http://www.w3.org/Graphics/SVG/1.1/DTD/svg11.dtd">
<svg version="1.1" id="Ebene_1" xmlns="http://www.w3.org/2000/svg" xmlns:xlink="http://www.w3.org/1999/xlink" x="0px" y="0px"
	 width="841.891px" height="595.279px" viewBox="0 0 841.891 595.279" enable-background="new 0 0 841.891 595.279"
	 xml:space="preserve">
<g>
	<path fill="#FFFFFF" d="M605.901,492.596C605.764,492.418,605.746,492.441,605.901,492.596L605.901,492.596z"/>
	<path fill="#FFFFFF" d="M706.686,539.526c-8.625-0.083-17.135-1.709-25.729-1.979c-1.098-0.035-2.019,0.2-2.801,0.594
		c-7.725-8.639-15.786-16.976-24.056-25.128c12.875,1.413,25.761,2.647,38.729,2.764c7.66,0.066,7.654-11.812,0-11.876
		c-16.582-0.146-33.021-2.118-49.48-3.959c-0.972-0.107-1.813-0.005-2.536,0.254c-5.049-4.771-10.128-9.517-15.245-14.228
		c12.378-0.788,26.173,2.619,37.574,4.077c7.583,0.968,7.487-10.919,0-11.876c-15.222-1.946-33.399-6.558-48.732-2.445
		c-15.941-14.593-31.887-29.188-46.998-44.522c-38.488-39.066-75.583-79.484-113.249-119.341
		c-8.371-8.854-16.861-17.542-25.433-26.125c24.824-27.269,50.044-54.188,74.897-81.42c33.353-36.545,61.613-78.665,98.396-111.86
		c1.021-0.92,1.569-1.943,1.781-2.974c8.678,6.688,17.236,13.52,25.447,20.786c5.713,5.057,14.146-3.311,8.396-8.396
		c-20.78-18.395-43.765-34.018-65.315-51.461c-5.894-4.772-14.352,3.575-8.396,8.396c10.26,8.305,20.846,16.201,31.366,24.18
		c-0.573,0.255-1.142,0.585-1.68,1.071c-34.979,31.568-61.742,71.423-93.307,106.264c-26.464,29.209-53.417,57.972-79.973,87.096
		c-26.991-26.624-54.821-52.219-83.062-77.783c-39.525-35.779-69.794-80-109.345-115.576c-0.085-0.077-0.176-0.122-0.264-0.193
		c7.571-6.334,15.579-12.07,24.791-16.211c6.977-3.135,0.933-13.367-5.991-10.256c-24.256,10.903-39.983,32.601-61.357,47.502
		c-6.233,4.348-0.306,14.647,5.992,10.256c9.951-6.938,18.72-15.376,27.694-23.512c0.22,0.276,0.448,0.549,0.737,0.811
		c37.701,33.914,66.451,76.201,103.823,110.547c30.021,27.59,60.074,54.702,89.034,83.181c-7.917,8.739-15.815,17.493-23.616,26.335
		c-36.268,41.109-70.771,83.746-105.761,125.937c-12.938,15.604-26.469,30.811-40.06,45.979c-1.021-2.542-3.529-4.626-6.946-4.068
		c-9.16,1.492-18.364,2.712-27.538,4.123c-5.804,0.895-14.333,0.989-19.402,4.392c-6.324,4.243-0.387,14.535,5.992,10.257
		c4.061-2.727,13.649-2.746,18.71-3.524c5.348-0.823,10.706-1.592,16.062-2.38c0.023,0.128,0.021,0.247,0.051,0.377
		c0.333,1.417,0.706,2.819,1.064,4.228c-6.007,6.712-11.974,13.449-17.899,20.212c-0.87-0.172-1.786-0.229-2.771-0.074
		c-13.006,2.076-26.902,2.239-39.585,5.938c-7.335,2.139-4.211,13.601,3.158,11.45c9.021-2.628,18.629-3.474,28.114-4.485
		c-4.938,5.787-9.792,11.628-14.568,17.521c-0.864-0.578-1.935-0.945-3.25-0.945c-7.785,0.004-15.83-0.104-23.351,2.19
		c-7.304,2.228-4.188,13.689,3.157,11.45c5.379-1.64,11.02-1.771,16.621-1.77c0,0,4.352-2.626,9.75,4.2
		c0.641,0.809,3.553,7.933,6.508,12.652c4.054,6.476,14.331,0.519,10.257-5.992c-2.918-4.664-3.146-9.455-3.148-14.816
		c-0.002-2.471-1.245-4.133-2.919-5.008c3.108-3.748,6.271-7.461,9.444-11.165c1.805,6.557,3.146,13.202,3.371,20.131
		c0.244,7.639,12.122,7.662,11.875,0c-0.345-10.646-2.896-20.716-6.047-30.75c5.007-5.711,10.048-11.398,15.121-17.064
		c3.764,12.473,7.95,24.821,10.932,37.521c1.749,7.453,13.198,4.291,11.449-3.158c-3.557-15.151-8.827-29.811-13.045-44.774
		c14.398-16.019,28.803-32.032,42.519-48.498c35.091-42.125,69.633-84.699,105.623-126.07c9.372-10.776,18.878-21.434,28.456-32.029
		c6.691,6.699,13.343,13.45,19.892,20.338c37.78,39.756,74.896,80.135,113.16,119.428c16.625,17.07,34.278,33.212,51.9,49.375
		c-2.573,2.832-2.383,8.51,2.438,10.159c-1.354-0.465-1.986-0.958-2.221-1.193c0.141,0.186,0.381,0.569,0.667,1.312
		c0.822,2.146,1.413,4.389,2.036,6.594c1.447,5.128,2.632,10.332,3.846,15.519c2.255,9.646,3.901,19.731,7.359,29.043
		c2.643,7.113,14.123,4.036,11.45-3.158c-4.285-11.534-6.154-24.138-9.028-36.072c-0.551-2.29-1.078-5.397-1.83-8.611
		c3.854,3.577,7.686,7.177,11.496,10.791c-0.368,0.992-0.492,2.13-0.213,3.404c3.897,17.748,6.692,36.301,14.452,52.878
		c3.244,6.935,13.479,0.897,10.256-5.991c-5.354-11.442-8.037-24.201-10.54-36.771c7.241,7.172,14.303,14.502,21.146,22.025
		c-1.594,1.704-2.352,4.227-1.068,6.883c3.434,7.112,5.408,14.703,7.318,22.334c1.859,7.424,13.312,4.272,11.451-3.158
		c-1.809-7.22-3.864-14.263-6.731-21.082c0.816,0.512,1.799,0.854,2.985,0.892c8.597,0.271,17.104,1.896,25.729,1.979
		C714.348,551.477,714.341,539.602,706.686,539.526z"/>
	<path fill="#FFFFFF" d="M598.844,41.921c13.107-9.875,31.952-12.223,48.801-12.834c3.625,16.167,3.616,32.777,3.622,49.271
		c0.003,7.658,11.878,7.658,11.876,0c-0.006-16.732-0.188-33.539-3.549-49.977c5.15-2.234,4.366-11.446-2.391-11.38
		c-20.775,0.205-47.108,1.674-64.354,14.665C586.814,36.213,592.721,46.533,598.844,41.921z"/>
	<path fill="#FFFFFF" d="M178.009,82.716c-5.934-14.448-9.394-29.753-14.482-44.495c18.073,4.233,36.452,6.711,54.681,10.235
		c7.482,1.447,10.671-9.999,3.158-11.451c-20.479-3.96-41.149-6.583-61.357-11.875c-1.605-0.421-2.995-0.189-4.138,0.416
		c-4.171-1.026-9.156,1.942-7.125,6.889c7.145,17.396,10.668,36.044,17.813,53.44C169.425,92.856,180.92,89.802,178.009,82.716z"/>
	<path fill="#FFFFFF" d="M207.864,68.882c0,5.876-4.763,10.639-10.639,10.639l0,0c-5.876,0-10.64-4.763-10.64-10.639l0,0
		c0-5.876,4.764-10.638,10.64-10.638l0,0C203.102,58.244,207.864,63.006,207.864,68.882L207.864,68.882z"/>
	<path fill="#FFFFFF" d="M633.406,57.997c0,5.876-4.764,10.639-10.64,10.639l0,0c-5.876,0-10.639-4.763-10.639-10.639l0,0
		c0-5.876,4.763-10.64,10.639-10.64l0,0C628.644,47.358,633.406,52.121,633.406,57.997L633.406,57.997z"/>
	<path fill="#FFFFFF" d="M346.66,283.88c0,5.876-4.763,10.639-10.639,10.639l0,0c-5.877,0-10.641-4.763-10.641-10.639l0,0
		c0-5.875,4.764-10.638,10.641-10.638l0,0C341.897,273.242,346.66,278.004,346.66,283.88L346.66,283.88z"/>
	<path fill="#FFFFFF" d="M517.866,279.921c0,5.876-4.763,10.639-10.638,10.639l0,0c-5.878,0-10.64-4.763-10.64-10.639l0,0
		c0-5.875,4.762-10.638,10.64-10.638l0,0C513.104,269.283,517.866,274.046,517.866,279.921L517.866,279.921z"/>
</g>
</svg>
