<?xml version="1.0" encoding="utf-8"?>
<!-- Generator: Adobe Illustrator 15.0.0, SVG Export Plug-In . SVG Version: 6.00 Build 0)  -->
<!DOCTYPE svg PUBLIC "-//W3C//DTD SVG 1.1//EN" "http://www.w3.org/Graphics/SVG/1.1/DTD/svg11.dtd">
<svg version="1.1" id="Ebene_1" xmlns="http://www.w3.org/2000/svg" xmlns:xlink="http://www.w3.org/1999/xlink" x="0px" y="0px"
	 width="841.891px" height="595.279px" viewBox="0 0 841.891 595.279" enable-background="new 0 0 841.891 595.279"
	 xml:space="preserve">
<g>
	<path fill="#393939" d="M605.901,492.596C605.764,492.419,605.745,492.441,605.901,492.596L605.901,492.596z"/>
	<path fill="#393939" d="M706.686,539.526c-8.625-0.083-17.135-1.709-25.729-1.979c-1.098-0.035-2.02,0.199-2.801,0.594
		c-7.726-8.639-15.786-16.977-24.057-25.128c12.875,1.413,25.762,2.646,38.729,2.765c7.66,0.065,7.654-11.812,0-11.876
		c-16.582-0.146-33.021-2.118-49.479-3.959c-0.972-0.107-1.812-0.006-2.534,0.254c-5.051-4.771-10.13-9.518-15.246-14.229
		c12.378-0.788,26.173,2.619,37.573,4.077c7.583,0.968,7.487-10.919,0-11.876c-15.222-1.946-33.398-6.559-48.731-2.445
		c-15.94-14.593-31.887-29.188-46.998-44.521c-38.487-39.065-75.583-79.483-113.249-119.342c-8.37-8.854-16.86-17.542-25.433-26.125
		c24.823-27.27,50.044-54.188,74.896-81.42c33.354-36.545,61.612-78.665,98.396-111.86c1.021-0.92,1.568-1.942,1.78-2.974
		c8.679,6.688,17.236,13.52,25.447,20.786c5.713,5.057,14.146-3.312,8.396-8.396c-20.78-18.395-43.766-34.018-65.314-51.461
		c-5.895-4.771-14.353,3.575-8.396,8.396c10.26,8.305,20.846,16.2,31.365,24.18c-0.572,0.255-1.143,0.585-1.68,1.071
		c-34.979,31.567-61.742,71.423-93.308,106.264c-26.464,29.209-53.417,57.972-79.974,87.096
		c-26.99-26.624-54.82-52.219-83.062-77.783c-39.525-35.778-69.794-80-109.346-115.575c-0.085-0.077-0.176-0.122-0.264-0.193
		c7.571-6.334,15.579-12.07,24.791-16.211c6.977-3.135,0.933-13.367-5.991-10.256c-24.253,10.901-39.979,32.6-61.353,47.501
		c-6.233,4.348-0.307,14.646,5.991,10.256c9.951-6.938,18.721-15.376,27.694-23.512c0.22,0.275,0.448,0.549,0.737,0.811
		c37.701,33.914,66.451,76.201,103.823,110.547c30.021,27.59,60.071,54.702,89.032,83.182c-7.917,8.738-15.813,17.493-23.614,26.335
		c-36.27,41.108-70.771,83.746-105.762,125.937c-12.938,15.604-26.469,30.812-40.06,45.979c-1.021-2.542-3.529-4.626-6.946-4.067
		c-9.16,1.492-18.364,2.712-27.538,4.123c-5.804,0.896-14.333,0.989-19.401,4.393c-6.324,4.242-0.388,14.534,5.991,10.257
		c4.062-2.728,13.649-2.746,18.71-3.523c5.349-0.823,10.706-1.591,16.062-2.38c0.022,0.128,0.021,0.248,0.051,0.377
		c0.333,1.417,0.706,2.818,1.064,4.229c-6.007,6.712-11.975,13.448-17.899,20.212c-0.87-0.173-1.786-0.229-2.771-0.073
		c-13.007,2.075-26.902,2.238-39.585,5.938c-7.335,2.14-4.211,13.603,3.157,11.45c9.021-2.628,18.629-3.475,28.114-4.484
		c-4.938,5.786-9.792,11.628-14.568,17.521c-0.863-0.578-1.935-0.945-3.25-0.945c-7.784,0.005-15.829-0.104-23.351,2.191
		c-7.304,2.227-4.188,13.688,3.157,11.448c5.379-1.641,11.02-1.771,16.621-1.771c0,0,4.352-2.626,9.75,4.2
		c0.641,0.809,3.553,7.933,6.508,12.651c4.054,6.477,14.331,0.52,10.257-5.99c-2.918-4.664-3.146-9.456-3.147-14.817
		c-0.002-2.471-1.245-4.133-2.92-5.008c3.108-3.748,6.271-7.461,9.444-11.165c1.805,6.558,3.146,13.202,3.371,20.131
		c0.244,7.64,12.122,7.662,11.875,0c-0.345-10.646-2.896-20.716-6.047-30.75c5.007-5.711,10.048-11.397,15.121-17.063
		c3.764,12.474,7.95,24.82,10.932,37.521c1.749,7.453,13.198,4.291,11.449-3.158c-3.557-15.149-8.827-29.811-13.045-44.771
		c14.397-16.021,28.803-32.033,42.519-48.498c35.092-42.127,69.634-84.7,105.622-126.071c9.373-10.774,18.879-21.435,28.456-32.029
		c6.692,6.699,13.345,13.45,19.894,20.341c37.779,39.754,74.896,80.135,113.16,119.428c16.625,17.068,34.277,33.211,51.899,49.375
		c-2.573,2.832-2.383,8.509,2.438,10.157c-1.354-0.465-1.985-0.958-2.223-1.192c0.143,0.187,0.383,0.568,0.667,1.312
		c0.823,2.146,1.413,4.391,2.037,6.596c1.447,5.128,2.631,10.332,3.847,15.518c2.255,9.646,3.9,19.732,7.358,29.043
		c2.644,7.113,14.123,4.036,11.45-3.157c-4.285-11.534-6.154-24.139-9.028-36.07c-0.551-2.29-1.079-5.398-1.831-8.612
		c3.854,3.577,7.688,7.177,11.497,10.791c-0.368,0.993-0.491,2.13-0.213,3.405c3.896,17.748,6.691,36.3,14.452,52.878
		c3.244,6.934,13.479,0.896,10.256-5.992c-5.354-11.442-8.037-24.201-10.54-36.771c7.241,7.172,14.304,14.502,21.146,22.024
		c-1.594,1.704-2.353,4.228-1.067,6.883c3.434,7.112,5.408,14.703,7.317,22.334c1.857,7.425,13.312,4.273,11.451-3.157
		c-1.81-7.221-3.864-14.264-6.73-21.082c0.815,0.514,1.799,0.854,2.984,0.893c8.598,0.271,17.104,1.896,25.729,1.979
		C714.348,551.477,714.341,539.602,706.686,539.526z"/>
	<path fill="#393939" d="M598.844,41.921c13.106-9.875,31.952-12.223,48.801-12.834c3.625,16.167,3.616,32.777,3.622,49.271
		c0.003,7.658,11.878,7.658,11.876,0c-0.006-16.732-0.188-33.539-3.549-49.978c5.149-2.233,4.366-11.445-2.392-11.38
		c-20.774,0.205-47.107,1.674-64.354,14.665C586.814,36.213,592.721,46.533,598.844,41.921z"/>
	<path fill="#393939" d="M178.009,82.716c-5.934-14.447-9.394-29.753-14.482-44.494c18.073,4.232,36.452,6.711,54.682,10.234
		c7.481,1.447,10.671-9.999,3.158-11.451c-20.479-3.96-41.149-6.583-61.357-11.875c-1.605-0.421-2.995-0.188-4.138,0.416
		c-4.171-1.025-9.156,1.942-7.125,6.89c7.145,17.396,10.668,36.044,17.812,53.439C169.425,92.856,180.92,89.802,178.009,82.716z"/>
	<path fill="#393939" d="M207.864,68.882c0,5.876-4.763,10.64-10.639,10.64l0,0c-5.876,0-10.64-4.764-10.64-10.64l0,0
		c0-5.876,4.764-10.638,10.64-10.638l0,0C203.102,58.244,207.864,63.006,207.864,68.882L207.864,68.882z"/>
	<path fill="#393939" d="M633.406,57.997c0,5.876-4.765,10.64-10.641,10.64l0,0c-5.876,0-10.639-4.764-10.639-10.64l0,0
		c0-5.876,4.763-10.64,10.639-10.64l0,0C628.644,47.358,633.406,52.121,633.406,57.997L633.406,57.997z"/>
	<path fill="#393939" d="M346.66,283.88c0,5.876-4.764,10.64-10.642,10.64l0,0c-5.876,0-10.64-4.764-10.64-10.64l0,0
		c0-5.875,4.764-10.638,10.64-10.638l0,0C341.897,273.242,346.66,278.004,346.66,283.88L346.66,283.88z"/>
	<path fill="#393939" d="M517.865,279.921c0,5.876-4.765,10.64-10.64,10.64l0,0c-5.877,0-10.639-4.764-10.639-10.64l0,0
		c0-5.875,4.762-10.638,10.639-10.638l0,0C513.104,269.283,517.865,274.046,517.865,279.921L517.865,279.921z"/>
</g>
</svg>
